<svg width="71.772949" height="41.501465" viewBox="0 0 71.7729 41.5015" fill="none" xmlns="http://www.w3.org/2000/svg" xmlns:xlink="http://www.w3.org/1999/xlink">
	<desc>
			Created with Pixso.
	</desc>
	<defs/>
	<path id="logo" d="M7.85254 16.0005L1.01514 16.0005L1.01514 0L7.42285 0C10.9517 0 12.7349 1.70264 12.7349 4.10352C12.7349 5.9834 11.5049 7.16504 9.84521 7.54102L9.84521 7.69678C11.6606 7.78271 13.3579 9.21143 13.3579 11.5801C13.3579 14.126 11.4458 16.0005 7.85254 16.0005ZM59.2085 4.00146L61.4697 4.00146L61.4697 6.49902L59.2085 6.49902L59.2085 12.3105C59.2085 13.2344 59.6704 13.4868 60.3364 13.4868C60.6479 13.4868 60.9971 13.4062 61.1636 13.374L61.6846 15.8501C61.3516 15.9629 60.7393 16.1348 59.8799 16.167C57.4683 16.2637 55.8677 15.1035 55.8838 12.751L55.8838 6.49902L54.2402 6.49902L54.2402 4.00146L55.8838 4.00146L55.8838 1.12793L59.2085 1.12793L59.2085 4.00146ZM4.39893 2.73389L4.39893 6.69775L6.90723 6.69775C8.2876 6.69775 9.31885 5.92969 9.31885 4.66211C9.31885 3.50732 8.47021 2.73389 6.96631 2.73389L4.39893 2.73389ZM26.3984 12.563C25.9312 14.792 23.9277 16.2368 20.9575 16.2368C17.2622 16.2368 15.0063 13.8574 15.0063 10.0547C15.0063 6.354 17.2944 3.8457 20.8286 3.8457C23.9976 3.8457 26.4683 5.85986 26.4683 9.93652L26.4683 10.8496L18.2935 10.8496L18.2935 10.8604C18.2935 12.6489 19.3516 13.75 21.0166 13.75C22.123 13.75 22.9824 13.272 23.3208 12.3589L26.3984 12.563ZM35.5669 14.3354C34.9814 15.4526 33.8374 16.2261 32.0596 16.2261C29.7715 16.2261 28.0796 15.0229 28.0796 12.6489C28.0796 9.96875 30.2119 9.17383 32.5859 8.95361C34.6699 8.74951 35.4917 8.64746 35.4917 7.87402L35.4917 7.83105C35.4917 6.84277 34.8418 6.27344 33.7085 6.27344C32.5161 6.27344 31.8018 6.85889 31.5762 7.65918L28.4985 7.40674C28.9604 5.2207 30.8511 3.8457 33.7246 3.8457C36.3994 3.8457 38.8218 5.04883 38.8218 7.90625L38.8218 16.0005L35.6636 16.0005L35.6636 14.3354L35.5669 14.3354ZM46.8125 13.3418C48.0049 13.3418 49.106 12.4985 49.1006 10.8926L49.1006 4.00146L52.4307 4.00146L52.4307 16.0005L49.2349 16.0005L49.2349 13.8198L49.106 13.8198C48.5688 15.2271 47.2744 16.1562 45.4697 16.1562C43.0527 16.1562 41.4146 14.4482 41.4038 11.6392L41.4038 4.00146L44.7339 4.00146L44.7339 11.0483C44.7393 12.4609 45.5557 13.3418 46.8125 13.3418ZM20.8823 6.32715C19.4053 6.32715 18.3687 7.42285 18.2935 8.78711L23.3369 8.78711C23.3262 7.3584 22.3271 6.32715 20.8823 6.32715ZM4.39893 8.98584L4.39893 13.2344L7.1543 13.2344C9.04492 13.2344 9.8667 12.4448 9.8667 11.2417C9.8667 9.92041 8.85693 8.98584 7.23486 8.98584L4.39893 8.98584ZM31.2593 12.5415C31.2593 13.4546 31.9897 13.9326 33.0156 13.9326C34.4766 13.9326 35.5132 12.9712 35.5132 11.709L35.5132 10.436C35.1157 10.7046 33.9287 10.8765 33.2036 10.9785C32.0327 11.1396 31.2593 11.6016 31.2593 12.5415ZM31.0869 37.0005L18.8354 37.0005L18.8354 34.9917L26.8169 23.7876L18.8193 23.7876L18.8193 21L31.0708 21L31.0708 23.0088L23.0786 34.2129L31.0869 34.2129L31.0869 37.0005ZM44.9424 31.0493C44.9424 34.7446 42.6812 37.2368 39.0396 37.2368C35.3979 37.2368 33.1313 34.7446 33.1313 31.0493C33.1313 27.3271 35.3979 24.8457 39.0396 24.8457C42.6812 24.8457 44.9424 27.3271 44.9424 31.0493ZM52.7168 27.6118C51.374 27.6118 50.4502 28.5142 50.4448 30.061L50.4448 37.0005L47.1147 37.0005L47.1147 25.0015L50.2891 25.0015L50.2891 27.1177L50.4287 27.1177C50.9658 25.7212 52.2549 24.8457 54.0381 24.8457C56.5356 24.8457 58.1792 26.5645 58.1792 29.3574L58.1792 37.0005L54.8491 37.0005L54.8491 29.9536C54.8599 28.4873 54.0542 27.6118 52.7168 27.6118ZM71.7031 33.563C71.2358 35.792 69.2324 37.2368 66.2622 37.2368C62.5669 37.2368 60.311 34.8574 60.311 31.0547C60.311 27.354 62.5991 24.8457 66.1333 24.8457C69.3022 24.8457 71.7729 26.8599 71.7729 30.9365L71.7729 31.8496L63.5981 31.8496L63.5981 31.8604C63.5981 33.6489 64.6562 34.75 66.3213 34.75C67.4277 34.75 68.2871 34.272 68.6255 33.3589L71.7031 33.563ZM7.47656 38.2949C6.79443 40.2339 5.48389 41.5015 3.00781 41.5015C2.16455 41.5015 1.39111 41.3618 0.913086 41.1577L1.66504 38.6709C2.83594 39.0308 3.66846 38.9771 4.10889 37.8545L4.30225 37.3442L0 25.0015L3.49658 25.0015L5.9834 33.8154L6.10693 33.8154L8.61523 25.0015L12.1387 25.0015L7.47656 38.2949ZM66.187 27.3271C64.71 27.3271 63.6733 28.4229 63.5981 29.7871L68.6416 29.7871C68.6309 28.3584 67.6318 27.3271 66.187 27.3271ZM36.5151 31.0225C36.5151 33.1172 37.3745 34.6587 39.0557 34.6587C40.7046 34.6587 41.564 33.1172 41.564 31.0225C41.564 28.9277 40.7046 27.3809 39.0557 27.3809C37.3745 27.3809 36.5151 28.9277 36.5151 31.0225Z" fill="#2B7FFF" fill-opacity="1.000000" fill-rule="evenodd"/>
</svg>
